<svg width="154" height="154" viewBox="0 0 154 154" fill="none" xmlns="http://www.w3.org/2000/svg">
<circle cx="77" cy="77" r="76" fill="#F4F8EC" stroke="#415515" stroke-width="2"/>
<path d="M38.25 38.6809C40.5551 43.5473 42.0932 48.7802 42.7495 54.1195C43.5007 61.0625 42.6269 68.3129 45.1574 74.9761C48.0675 82.6994 56.505 87.7274 64.6974 87.026C67.7222 98.5123 70.0668 110.176 71.7314 121.93C71.8144 122.762 72.5301 123.238 73.2141 123.573C74.851 120.137 75.3136 116.284 76.4958 112.686C79.8091 102.476 84.4945 92.6568 90.7376 83.8933C93.8889 85.6035 97.6411 86.4428 101.18 85.5404C105.849 84.378 109.629 80.8592 111.998 76.7848C114.01 73.132 116.141 69.4714 119.115 66.5003C120.008 65.5861 121.092 64.8808 122.25 64.3488C115.236 62.1737 107.629 61.0586 100.397 62.8121C95.4941 63.9627 90.9472 67.0914 88.6935 71.6583C87.4006 74.1723 87.2661 77.2104 88.389 79.811C91.7142 75.4805 95.5258 71.4101 100.215 68.5257C104.129 66.1378 108.755 64.4079 113.405 65.0345C110.728 65.2945 108.324 66.5791 105.81 67.4263C98.4121 70.886 92.762 77.104 88.0292 83.586C83.5297 89.8512 79.8803 96.6839 76.7409 103.714C73.5976 92.8066 69.5172 82.1477 64.3495 72.0326C62.0246 67.4933 59.6049 62.9815 56.5683 58.8677C54.1722 55.4868 51.365 52.4369 48.5063 49.4501C50.3528 50.7898 52.0016 52.3739 53.6187 53.9737C62.1472 62.4968 68.6118 72.9705 72.9096 84.1967C74.8629 83.2471 76.8635 82.2305 78.3383 80.5991C80.5722 78.1482 81.5805 74.8185 81.7624 71.5677C81.9917 66.985 81.0348 62.221 78.4411 58.3712C74.7245 52.6182 68.9281 48.5477 62.8312 45.6003C55.1054 41.9318 46.7192 39.7645 38.25 38.6809Z" fill="#415515"/>
<path fill-rule="evenodd" clip-rule="evenodd" d="M38.25 38.6809C46.7192 39.7645 55.1054 41.9318 62.8312 45.6003C68.9281 48.5477 74.7245 52.6182 78.4411 58.3712C81.0348 62.221 81.9917 66.985 81.7624 71.5677C81.5805 74.8185 80.5722 78.1482 78.3383 80.5991C76.8635 82.2305 74.8629 83.2471 72.9096 84.1967C68.6118 72.9705 62.1472 62.4968 53.6187 53.9737C52.0016 52.3739 50.3528 50.7898 48.5063 49.4501C51.365 52.4369 54.1722 55.4868 56.5683 58.8677C59.6049 62.9815 62.0246 67.4933 64.3495 72.0326C69.5172 82.1477 73.5976 92.8066 76.7409 103.714C79.8803 96.6839 83.5297 89.8512 88.0292 83.586C92.762 77.104 98.4121 70.886 105.81 67.4263C108.324 66.5791 110.728 65.2945 113.405 65.0345C108.755 64.4079 104.129 66.1378 100.215 68.5257C95.5258 71.4101 91.7143 75.4805 88.389 79.811C87.2661 77.2104 87.4006 74.1723 88.6935 71.6583C90.9472 67.0914 95.4941 63.9627 100.397 62.8121C107.629 61.0586 115.236 62.1737 122.25 64.3488C121.092 64.8808 120.008 65.5861 119.115 66.5003C116.141 69.4714 114.01 73.132 111.998 76.7848C109.629 80.8592 105.849 84.378 101.18 85.5404C97.6411 86.4428 93.8889 85.6035 90.7376 83.8933C84.4945 92.6568 79.8091 102.476 76.4958 112.686C75.3136 116.284 74.851 120.137 73.2141 123.573C72.5301 123.238 71.8144 122.762 71.7314 121.93C70.0668 110.176 67.7222 98.5123 64.6975 87.026C56.505 87.7274 48.0675 82.6994 45.1574 74.9762C42.6269 68.3129 43.5007 61.0625 42.7495 54.1195C42.0932 48.7802 40.5551 43.5473 38.25 38.6809Z" fill="#415515"/>
</svg>
