<svg width="1440" height="73" viewBox="0 0 1440 73" fill="none" xmlns="http://www.w3.org/2000/svg">
<g clip-path="url(#clip0_747_4111)">
<path d="M0 73L0.397358 27.7853L82.9149 20.0722L134.935 32.4199L154.224 13.8926L213.976 18.5273L233.248 0L344.557 15.0697L367.686 16.6146L587.854 0C587.854 0 720.786 36.3133 730.439 37.8581C740.075 39.403 1058.06 19.3365 1058.06 19.3365L1121.65 0L1266.16 23.9655L1440 37.8977L1439.67 73L0 73Z" fill="#84B93E"/>
<path d="M104.852 77.6133L166.541 44.2832L268.181 77.9998L104.852 77.6133Z" fill="#B06A4B"/>
<path d="M391.991 77.6133L435.816 59.01H464.74L541.364 43.8853L560.122 61.329L759.594 55.5145L839.082 76.4481L391.991 77.6133Z" fill="#B06A4B"/>
<path d="M1035.67 73.0593L1047.21 60.65L1130.08 55.3169L1154.2 42.0166L1350.73 74.3926L1035.67 73.0593Z" fill="#B06A4B"/>
</g>
<defs>
<clipPath id="clip0_747_4111">
<rect width="1440" height="73" fill="white"/>
</clipPath>
</defs>
</svg>
