<svg width="154" height="154" viewBox="0 0 154 154" fill="none" xmlns="http://www.w3.org/2000/svg">
<circle cx="77" cy="77" r="76" fill="#F4F8EC" stroke="#415515" stroke-width="2"/>
<path d="M79.3617 59.3799V63.4059C79.7118 67.0816 80.5872 70.7574 82.1621 74.0831C82.1621 74.0831 82.1621 74.2581 82.3372 74.2581C74.6355 74.9584 68.1593 78.109 64.3076 82.485C75.1599 83.7105 81.1108 88.0858 88.2868 91.062C90.5621 92.1124 92.4878 94.0375 93.3632 96.4877C93.8884 96.3126 91.7876 97.0129 110.341 89.6614C109.291 82.3099 101.415 76.3588 91.2626 74.6082C90.5624 73.3827 89.8621 72.158 89.3376 70.9324C88.6373 69.5319 87.937 67.9569 87.5869 66.3814C89.512 66.9066 93.888 67.6068 98.2641 63.756C103.865 58.6797 106.841 47.8282 106.841 47.8282C106.141 48.1784 88.287 50.6286 86.5377 61.4809C85.3122 52.7288 89.5132 49.0538 93.8892 40.6511H88.6379C86.7128 43.2765 83.3866 47.4775 82.3368 49.7528L81.8116 49.9278C78.1359 40.4762 60.9818 35.9251 60.8081 35.75C60.9832 36.1001 64.659 60.4293 79.3623 59.38L79.3617 59.3799Z" fill="#415515"/>
<path d="M120.669 93.3371C119.793 91.2369 117.343 90.1865 115.243 91.0618L95.2886 99.1137C91.2619 100.689 91.2619 105.764 85.8362 104.189L67.8066 98.5886C67.2814 98.4135 66.9313 97.8883 66.9313 97.3631C66.9313 96.4878 67.8066 95.7875 68.682 96.1376L86.5361 101.738C90.912 102.964 92.1369 96.6621 86.7111 94.2119C76.0339 89.3106 68.5079 84.7602 55.7296 85.8099L37 87.2105V87.3855V114.34H37.1751L45.7514 111.015C61.3299 104.889 75.8574 123.093 92.136 113.816L118.391 99.1127C120.666 98.0623 121.541 95.612 120.666 93.3367L120.669 93.3371Z" fill="#415515"/>
</svg>
