<svg width="154" height="154" viewBox="0 0 154 154" fill="none" xmlns="http://www.w3.org/2000/svg">
<circle cx="77" cy="77" r="76" fill="#F4F8EC" stroke="#415515" stroke-width="2"/>
<path d="M89.9426 78.6902H63.0601L69.6991 67.8065V46.0393H83.3035V67.8065L89.9426 78.6902Z" fill="#415515"/>
<path d="M96.7176 94.7974C96.2599 95.6805 95.5691 96.4214 94.7201 96.9396C93.871 97.4575 92.8963 97.733 91.9016 97.7359H61.1009C60.1065 97.7312 59.1322 97.4549 58.2833 96.937C57.4343 96.4189 56.7429 95.6789 56.2837 94.7969C55.8244 93.9149 55.6148 92.924 55.6773 91.9316C55.7399 90.939 56.0723 89.9824 56.6387 89.1651L63.06 78.6897H89.9425L96.3638 89.1651C96.9321 89.9819 97.2653 90.9387 97.3277 91.9319C97.3903 92.9248 97.1791 93.9159 96.7176 94.7974Z" fill="#415515"/>
<path d="M96.3628 89.1651L89.9415 78.6897H76.2281C74.7459 82.893 72.3004 86.6912 69.0878 89.7806C65.8751 92.87 61.9842 95.1647 57.7261 96.4817C58.6729 97.2733 59.8647 97.7169 61.1 97.7359H91.9006C92.895 97.7312 93.8693 97.4549 94.7183 96.937C95.5673 96.4189 96.2587 95.6789 96.7179 94.7969C97.1771 93.9149 97.3867 92.924 97.3241 91.9316C97.2615 90.939 96.9293 89.9824 96.3628 89.1651Z" fill="#415515"/>
<path d="M77.8611 46.0393V69.2186C77.8583 72.4457 77.3061 75.6483 76.2285 78.6902H89.9418L83.3028 67.8065V46.0393H77.8611Z" fill="#415515"/>
<path d="M96.7176 94.7974C96.2599 95.6805 95.5691 96.4214 94.7201 96.9396C93.871 97.4575 92.8963 97.733 91.9016 97.7359H61.1009C60.1065 97.7312 59.1322 97.4549 58.2833 96.937C57.4343 96.4189 56.7429 95.6789 56.2837 94.7969C55.8244 93.9149 55.6148 92.924 55.6773 91.9316C55.7399 90.939 56.0723 89.9824 56.6387 89.1651L63.06 78.6897H89.9425L96.3638 89.1651C96.9321 89.9819 97.2653 90.9387 97.3277 91.9319C97.3903 92.9248 97.1791 93.9159 96.7176 94.7974Z" fill="#415515" stroke="#F4F8EC" stroke-linecap="round" stroke-linejoin="round"/>
<path d="M89.9426 78.6902H63.0601L69.6991 67.8065V46.0393H83.3035V67.8065L89.9426 78.6902Z" fill="#415515" stroke="#F4F8EC" stroke-linecap="round" stroke-linejoin="round"/>
<path d="M88.7438 43.3183C88.7438 44.04 88.4574 44.732 87.947 45.2423C87.4367 45.7525 86.7448 46.0392 86.023 46.0392H66.9768C66.2551 46.0392 65.5631 45.7525 65.0528 45.2423C64.5425 44.732 64.2559 44.04 64.2559 43.3183C64.2559 42.5967 64.5425 41.9046 65.0528 41.3943C65.5631 40.8841 66.2551 40.5974 66.9768 40.5974H86.023C86.7448 40.5974 87.4367 40.8841 87.947 41.3943C88.4574 41.9046 88.7438 42.5967 88.7438 43.3183Z" fill="#415515" stroke="#F4F8EC" stroke-linecap="round" stroke-linejoin="round"/>
<path d="M83.3028 51.4812H77.8608H83.3028Z" fill="#415515"/>
<path d="M83.3028 51.4812H77.8608" stroke="#F4F8EC" stroke-linecap="round" stroke-linejoin="round"/>
<path d="M83.3028 62.3643H77.8608H83.3028Z" fill="#415515"/>
<path d="M83.3028 62.3643H77.8608" stroke="#F4F8EC" stroke-linecap="round" stroke-linejoin="round"/>
<path d="M83.3032 56.9224H75.1406H83.3032Z" fill="#415515"/>
<path d="M83.3032 56.9224H75.1406" stroke="#F4F8EC" stroke-linecap="round" stroke-linejoin="round"/>
<path d="M69.6981 92.2944C70.7805 92.2944 71.8186 91.8643 72.584 91.0989C73.3494 90.3335 73.7795 89.2954 73.7795 88.2129C73.7795 87.1306 73.3494 86.0925 72.584 85.3271C71.8186 84.5617 70.7805 84.1316 69.6981 84.1316C68.6156 84.1316 67.5775 84.5617 66.8121 85.3271C66.0467 86.0925 65.6167 87.1306 65.6167 88.2129C65.6167 89.2954 66.0467 90.3335 66.8121 91.0989C67.5775 91.8643 68.6156 92.2944 69.6981 92.2944Z" fill="#415515" stroke="#F4F8EC" stroke-linecap="round" stroke-linejoin="round"/>
<path d="M86.0239 91.614C86.2044 91.614 86.3774 91.6854 86.5049 91.8132C86.6325 91.9407 86.7041 92.1137 86.7041 92.2942" fill="#415515"/>
<path d="M86.0239 91.614C86.2044 91.614 86.3774 91.6854 86.5049 91.8132C86.6325 91.9407 86.7041 92.1137 86.7041 92.2942" stroke="#F4F8EC" stroke-linecap="round" stroke-linejoin="round"/>
<path d="M85.3428 92.2942C85.3428 92.1137 85.4145 91.9407 85.542 91.8132C85.6695 91.6854 85.8427 91.614 86.023 91.614" fill="#415515"/>
<path d="M85.3428 92.2942C85.3428 92.1137 85.4145 91.9407 85.542 91.8132C85.6695 91.6854 85.8427 91.614 86.023 91.614" stroke="#F4F8EC" stroke-linecap="round" stroke-linejoin="round"/>
<path d="M86.023 92.9749C85.8427 92.9749 85.6695 92.9032 85.542 92.7754C85.4145 92.6479 85.3428 92.4749 85.3428 92.2947" fill="#415515"/>
<path d="M86.023 92.9749C85.8427 92.9749 85.6695 92.9032 85.542 92.7754C85.4145 92.6479 85.3428 92.4749 85.3428 92.2947" stroke="#F4F8EC" stroke-linecap="round" stroke-linejoin="round"/>
<path d="M86.7041 92.2947C86.7041 92.4749 86.6325 92.6479 86.5049 92.7754C86.3774 92.9032 86.2044 92.9749 86.0239 92.9749" fill="#415515"/>
<path d="M86.7041 92.2947C86.7041 92.4749 86.6325 92.6479 86.5049 92.7754C86.3774 92.9032 86.2044 92.9749 86.0239 92.9749" stroke="#F4F8EC" stroke-linecap="round" stroke-linejoin="round"/>
<path d="M80.5825 83.4517C80.763 83.4517 80.936 83.5233 81.0635 83.6509C81.191 83.7784 81.2627 83.9514 81.2627 84.1319" fill="#415515"/>
<path d="M80.5825 83.4517C80.763 83.4517 80.936 83.5233 81.0635 83.6509C81.191 83.7784 81.2627 83.9514 81.2627 84.1319" stroke="#F4F8EC" stroke-linecap="round" stroke-linejoin="round"/>
<path d="M79.9014 84.1319C79.9014 83.9514 79.973 83.7784 80.1006 83.6509C80.2281 83.5233 80.4011 83.4517 80.5816 83.4517" fill="#415515"/>
<path d="M79.9014 84.1319C79.9014 83.9514 79.973 83.7784 80.1006 83.6509C80.2281 83.5233 80.4011 83.4517 80.5816 83.4517" stroke="#F4F8EC" stroke-linecap="round" stroke-linejoin="round"/>
<path d="M80.5816 84.8118C80.4011 84.8118 80.2281 84.7401 80.1006 84.6126C79.973 84.4851 79.9014 84.3121 79.9014 84.1316" fill="#415515"/>
<path d="M80.5816 84.8118C80.4011 84.8118 80.2281 84.7401 80.1006 84.6126C79.973 84.4851 79.9014 84.3121 79.9014 84.1316" stroke="#F4F8EC" stroke-linecap="round" stroke-linejoin="round"/>
<path d="M81.2627 84.1316C81.2627 84.3121 81.191 84.4851 81.0635 84.6126C80.936 84.7401 80.763 84.8118 80.5825 84.8118" fill="#415515"/>
<path d="M81.2627 84.1316C81.2627 84.3121 81.191 84.4851 81.0635 84.6126C80.936 84.7401 80.763 84.8118 80.5825 84.8118" stroke="#F4F8EC" stroke-linecap="round" stroke-linejoin="round"/>
<path fill-rule="evenodd" clip-rule="evenodd" d="M105.291 101.952L52.0478 48.7092C58.7108 42.8253 67.4281 39.2222 77 39.2222C97.8297 39.2222 114.778 56.1703 114.778 77C114.778 86.5672 111.175 95.2892 105.291 101.952ZM39.2222 77C39.2222 67.4281 42.8206 58.7108 48.7092 52.0478L101.952 105.291C95.2892 111.175 86.5672 114.778 77 114.778C56.1703 114.778 39.2222 97.8297 39.2222 77ZM77 34.5C53.5258 34.5 34.5 53.5258 34.5 77C34.5 100.474 53.5258 119.5 77 119.5C100.469 119.5 119.5 100.474 119.5 77C119.5 53.5258 100.469 34.5 77 34.5Z" fill="#415515"/>
</svg>
