<svg width="154" height="154" viewBox="0 0 154 154" fill="none" xmlns="http://www.w3.org/2000/svg">
<circle cx="77" cy="77" r="76" fill="#F4F8EC" stroke="#415515" stroke-width="2"/>
<path d="M60.9082 120.707C60.9082 120.707 62.8513 120.882 67.9035 102.014C73.3443 81.8438 77.8718 76.0144 78.96 74.9651" stroke="#843E20" stroke-linecap="round" stroke-linejoin="round"/>
<path d="M93.9229 49.9372C89.9136 52.5476 86.471 55.9386 83.8002 59.9079C81.1295 63.8773 79.2854 68.3438 78.3777 73.0411C78.278 73.5935 78.3936 74.1631 78.7008 74.6329C79.0079 75.1027 79.4834 75.437 80.0294 75.5672C84.6939 76.6229 89.5231 76.73 94.2298 75.8822C98.9366 75.0343 103.425 73.2487 107.428 70.6316C111.433 68.0123 114.873 64.6164 117.543 60.6447C120.213 56.6729 122.059 52.206 122.973 47.5082C123.094 46.9467 122.989 46.3598 122.68 45.8756C122.37 45.3915 121.882 45.0493 121.321 44.9238C116.652 43.8783 111.819 43.7833 107.112 44.6446C102.405 45.5059 97.9196 47.3058 93.9229 49.9372Z" fill="#415515"/>
<path d="M79.3881 75.2955C82.0823 66.7523 87.8886 59.5335 95.6557 55.0705C103.423 50.6075 112.583 49.2262 121.321 51.2006C121.548 51.2459 121.765 51.3315 121.962 51.4532C122.365 50.1759 122.703 48.8788 122.973 47.5669C123.042 47.2848 123.053 46.9917 123.007 46.705C122.961 46.4183 122.858 46.1437 122.704 45.8974C122.55 45.6511 122.348 45.4381 122.111 45.271C121.873 45.1039 121.605 44.986 121.321 44.9243C116.656 43.8715 111.826 43.766 107.119 44.6141C102.412 45.4621 97.9235 47.2464 93.9189 49.8612C89.9142 52.4761 86.4752 55.8682 83.8056 59.8366C81.136 63.805 79.2903 68.2689 78.3777 72.9638C78.2775 73.4094 78.3214 73.8752 78.503 74.2943C78.6846 74.7133 78.9945 75.0639 79.3881 75.2955Z" fill="#415515"/>
<path d="M93.9229 49.9372C89.9136 52.5476 86.471 55.9386 83.8002 59.9079C81.1295 63.8773 79.2854 68.3438 78.3777 73.0411C78.278 73.5935 78.3936 74.1631 78.7008 74.6329C79.0079 75.1027 79.4834 75.437 80.0294 75.5672C84.6939 76.6229 89.5231 76.73 94.2298 75.8822C98.9366 75.0343 103.425 73.2487 107.428 70.6316C111.433 68.0123 114.873 64.6164 117.543 60.6447C120.213 56.6729 122.059 52.206 122.973 47.5082C123.094 46.9467 122.989 46.3598 122.68 45.8756C122.37 45.3915 121.882 45.0493 121.321 44.9238C116.652 43.8783 111.819 43.7833 107.112 44.6446C102.405 45.5059 97.9196 47.3058 93.9229 49.9372Z" stroke="#415515" stroke-linecap="round" stroke-linejoin="round"/>
<path d="M90.8638 96.8113C94.0944 96.2262 97.4102 96.2983 100.613 97.0212C103.815 97.7441 106.839 99.1036 109.504 101.019V101.02C109.719 101.176 109.867 101.408 109.916 101.669C109.964 101.927 109.912 102.194 109.771 102.416C107.948 105.143 105.596 107.477 102.855 109.279C100.114 111.081 97.04 112.315 93.814 112.908C90.5878 113.501 87.2753 113.441 84.0728 112.731C80.8703 112.021 77.842 110.677 75.1685 108.776C74.9555 108.621 74.8098 108.39 74.7612 108.131C74.7125 107.87 74.7662 107.599 74.9106 107.377L74.9097 107.376C76.7199 104.632 79.0666 102.283 81.8071 100.468C84.5491 98.6515 87.6303 97.408 90.8647 96.8123L90.8638 96.8113Z" fill="#415515" stroke="#415515"/>
<path d="M74.88 109.048L75.1326 109.223C79.2095 104.73 84.7804 101.873 90.8076 101.183C96.8348 100.493 102.907 102.017 107.894 105.472C108.728 104.557 109.494 103.583 110.187 102.558C110.401 102.227 110.48 101.827 110.408 101.44C110.335 101.053 110.117 100.709 109.798 100.478C107.062 98.5457 103.965 97.182 100.692 96.4682C97.4189 95.7545 94.0358 95.7051 90.7431 96.323C87.4505 96.9409 84.3155 98.2136 81.5238 100.066C78.7322 101.918 76.3408 104.311 74.4913 107.105C74.3161 107.422 74.259 107.791 74.3301 108.147C74.4012 108.503 74.596 108.822 74.88 109.048Z" fill="#415515"/>
<path d="M90.7742 96.3204C87.4735 96.9284 84.3297 98.197 81.5315 100.05C78.7333 101.903 76.3385 104.303 74.4907 107.105C74.2766 107.435 74.1975 107.835 74.2698 108.222C74.3421 108.609 74.5603 108.953 74.8793 109.184C77.6075 111.123 80.6968 112.495 83.9646 113.22C87.2324 113.944 90.6123 114.005 93.9043 113.4C97.1962 112.795 100.333 111.536 103.13 109.697C105.927 107.858 108.326 105.476 110.186 102.694C110.4 102.364 110.479 101.964 110.407 101.577C110.335 101.19 110.117 100.845 109.798 100.615C107.077 98.6593 103.991 97.2713 100.723 96.5335C97.4543 95.7958 94.071 95.7233 90.7742 96.3204Z" stroke="#415515" stroke-linecap="round" stroke-linejoin="round"/>
<path d="M35.0527 68.0564C39.1655 68.6671 43.1139 70.0972 46.6641 72.2615C49.9931 74.2909 52.9084 76.9277 55.2598 80.032L55.7227 80.6589C58.1535 84.0385 59.8792 87.8735 60.7959 91.9343C61.7123 95.9944 61.8006 100.197 61.0576 104.293C60.9825 104.643 60.7805 104.954 60.4893 105.163C60.1952 105.374 59.832 105.466 59.4727 105.423C55.3607 104.816 51.4126 103.39 47.8623 101.228C44.3085 99.0646 41.2258 96.2086 38.7979 92.8298C36.3698 89.4509 34.6457 85.6178 33.7285 81.5593C32.8119 77.5031 32.7193 73.3041 33.457 69.2117C33.5274 68.852 33.732 68.5325 34.0293 68.3181C34.3251 68.1049 34.691 68.0111 35.0527 68.0564Z" fill="#415515" stroke="#415515"/>
<path d="M56.1281 80.3865C53.6653 76.95 50.5366 74.0437 46.9281 71.8406C43.3196 69.6374 39.3049 68.1823 35.1228 67.5618C34.633 67.4983 34.1375 67.6237 33.7368 67.9124C33.3362 68.2012 33.0605 68.6316 32.9659 69.1163C32.7136 70.5029 32.5578 71.9053 32.4995 73.3135C40.7789 74.7879 48.2498 79.196 53.5437 85.7302C57.9803 91.1728 60.6872 97.8182 61.3163 104.812C61.381 104.663 61.4267 104.506 61.4523 104.345C62.2168 100.199 62.1393 95.941 61.2247 91.825C60.31 87.709 58.5768 83.819 56.1281 80.3865Z" fill="#415515"/>
<path d="M56.1286 80.3671C53.6623 76.9357 50.5324 74.0343 46.9242 71.8347C43.3161 69.6351 39.3032 68.1821 35.1232 67.5618C34.6335 67.4983 34.1379 67.6237 33.7373 67.9124C33.3366 68.2012 33.061 68.6316 32.9663 69.1163C32.2154 73.2769 32.3086 77.546 33.2406 81.6699C34.1726 85.7937 35.9242 89.6881 38.3913 93.1214C40.8585 96.5547 43.9908 99.457 47.602 101.656C51.2132 103.854 55.2296 105.304 59.4125 105.919C59.8964 105.978 60.3847 105.853 60.7806 105.569C61.1765 105.284 61.4511 104.862 61.5499 104.384C62.3053 100.222 62.2146 95.9504 61.2832 91.824C60.3517 87.6977 58.5987 83.8012 56.1286 80.3671V80.3671Z" stroke="#415515" stroke-linecap="round" stroke-linejoin="round"/>
<path d="M87.5882 81.4554C85.6095 82.7932 83.9193 84.5143 82.6176 86.5169C81.3159 88.5195 80.4292 90.7629 80.0099 93.1143C79.9634 93.3892 80.0241 93.6714 80.1796 93.9028C80.335 94.1342 80.5734 94.2971 80.8455 94.3579C83.2002 94.8559 85.6311 94.8749 87.9934 94.4136C90.3556 93.9524 92.6008 93.0204 94.5953 91.6733C96.5898 90.3261 98.2927 88.5912 99.6027 86.5721C100.913 84.5529 101.803 82.2908 102.22 79.9204C102.261 79.6434 102.196 79.3611 102.037 79.1304C101.878 78.8997 101.638 78.7376 101.365 78.6768C98.9999 78.1885 96.5604 78.1829 94.1931 78.6604C91.8257 79.1379 89.5792 80.0886 87.5882 81.4554Z" fill="#415515"/>
<path d="M80.9035 94.4159H81.0201C82.5473 90.499 85.4075 87.2465 89.0971 85.2311C92.7866 83.2157 97.0689 82.5667 101.19 83.3983C101.629 82.2943 101.955 81.1484 102.162 79.9784C102.203 79.7014 102.137 79.4191 101.979 79.1884C101.82 78.9577 101.58 78.7956 101.307 78.7348C98.9585 78.2485 96.5367 78.2386 94.1847 78.7055C91.8327 79.1725 89.5984 80.1069 87.6142 81.4532C85.63 82.7996 83.9362 84.5306 82.6333 86.5436C81.3304 88.5566 80.4448 90.8107 80.0291 93.1723C79.9837 93.4527 80.0498 93.7398 80.2132 93.9721C80.3765 94.2045 80.6243 94.3638 80.9035 94.4159Z" fill="#415515"/>
<path d="M87.5882 81.4554C85.6095 82.7932 83.9193 84.5143 82.6176 86.5169C81.3159 88.5195 80.4292 90.7629 80.0099 93.1143C79.9634 93.3892 80.0241 93.6714 80.1796 93.9028C80.335 94.1342 80.5734 94.2971 80.8455 94.3579C83.2002 94.8559 85.6311 94.8749 87.9934 94.4136C90.3556 93.9524 92.6008 93.0204 94.5953 91.6733C96.5898 90.3261 98.2927 88.5912 99.6027 86.5721C100.913 84.5529 101.803 82.2908 102.22 79.9204C102.261 79.6434 102.196 79.3611 102.037 79.1304C101.878 78.8997 101.638 78.7376 101.365 78.6768C98.9999 78.1885 96.5604 78.1829 94.1931 78.6604C91.8257 79.1379 89.5792 80.0886 87.5882 81.4554Z" stroke="#415515" stroke-linecap="round" stroke-linejoin="round"/>
<path d="M44.248 52.106C47.704 51.811 51.184 52.2124 54.4824 53.2856C57.577 54.2926 60.4531 55.872 62.9609 57.9399L63.457 58.3599C66.0796 60.634 68.218 63.4129 69.7441 66.5308C71.2692 69.6464 72.1517 73.0368 72.3398 76.5005C72.3514 76.7847 72.2543 77.0634 72.0674 77.2778C71.9036 77.4656 71.6821 77.5923 71.4395 77.6392L71.335 77.6538C67.8806 77.9465 64.4027 77.5442 61.1064 76.4702C57.8086 75.3957 54.7594 73.6711 52.1396 71.3979C49.5199 69.1247 47.3822 66.3493 45.8535 63.2358C44.4204 60.317 43.5504 57.1564 43.2852 53.9194L43.2402 53.271C43.2303 52.9864 43.3277 52.7085 43.5137 52.4927C43.7007 52.2757 43.9633 52.1372 44.248 52.106Z" fill="#415515" stroke="#415515"/>
<path d="M43.2653 57.2051C43.5131 56.9527 43.8451 56.8005 44.198 56.7776C50.6382 56.2238 57.058 58.0497 62.2429 61.9097C67.4278 65.7697 71.0181 71.3962 72.3347 77.7246C72.5065 77.5683 72.641 77.3754 72.7285 77.1602C72.8159 76.945 72.854 76.7129 72.8399 76.481C72.6474 72.9478 71.7467 69.4893 70.1914 66.311C68.6361 63.1327 66.4579 60.2994 63.7863 57.9793C61.1146 55.6592 58.0038 53.8998 54.6389 52.8054C51.2739 51.7111 47.7233 51.3041 44.198 51.6088C43.7858 51.6529 43.4059 51.8521 43.1352 52.1661C42.8646 52.48 42.7235 52.8852 42.7407 53.2993C42.8199 54.6123 42.9952 55.9177 43.2653 57.2051Z" fill="#415515"/>
<path d="M63.7849 57.9821C61.1124 55.6636 58.0019 53.9049 54.6374 52.8101C51.273 51.7153 47.7232 51.3068 44.198 51.6086C43.7858 51.6527 43.4059 51.8519 43.1352 52.1659C42.8646 52.4798 42.7235 52.885 42.7407 53.2992C42.941 56.8289 43.847 60.2826 45.4051 63.4561C46.9632 66.6296 49.1418 69.4584 51.8121 71.7755C54.4823 74.0925 57.5901 75.8506 60.9515 76.9458C64.3129 78.041 67.8599 78.4512 71.3826 78.1519C71.7931 78.1125 72.1729 77.9174 72.444 77.6066C72.715 77.2957 72.8567 76.8929 72.8399 76.4808C72.649 72.9476 71.7489 69.4889 70.1932 66.3108C68.6376 63.1328 66.4582 60.3003 63.7849 57.9821Z" stroke="#415515" stroke-linecap="round" stroke-linejoin="round"/>
<path d="M62.502 118.511C65.0031 113.71 69.1382 109.96 74.1608 107.94" stroke="#843E20" stroke-linecap="round" stroke-linejoin="round"/>
<path d="M67.6709 103.005C69.1088 97.6223 76.998 97.428 79.9904 93.5806" stroke="#843E20" stroke-linecap="round" stroke-linejoin="round"/>
<path d="M72.801 86.7794C72.801 86.7794 74.7441 81.4358 71.7905 78.113" stroke="#843E20" stroke-linecap="round" stroke-linejoin="round"/>
<path d="M65.126 111.594L64.5431 110.972C62.8877 109.157 61.4886 107.124 60.3848 104.929" stroke="#843E20" stroke-linecap="round" stroke-linejoin="round"/>
<path d="M78.9219 74.9263L79.0968 74.6542C84.1741 67.1343 91.3698 61.2912 99.7718 57.8655" stroke="white" stroke-linecap="round" stroke-linejoin="round"/>
<path d="M71.8094 78.0549L71.5374 77.4913C71.5374 77.4913 68.6227 71.6619 57.6245 62.5486" stroke="white" stroke-linecap="round" stroke-linejoin="round"/>
<path d="M80.2046 93.8915L81.1567 92.9199C84.0423 90.0852 87.313 87.6714 90.8724 85.7498" stroke="white" stroke-linecap="round" stroke-linejoin="round"/>
<path d="M74.1807 107.94C74.1807 107.94 80.8262 103.219 93.8453 103.938" stroke="white" stroke-linecap="round" stroke-linejoin="round"/>
<path d="M60.3831 104.928C60.3831 104.928 57.3324 94.6296 46.4702 83.5537" stroke="white" stroke-linecap="round" stroke-linejoin="round"/>
</svg>
